<svg width="12" height="12" viewBox="0 0 12 12" fill="none" xmlns="http://www.w3.org/2000/svg">
<path d="M6.77526 0.950591C6.82196 0.954077 6.86525 0.957563 6.9017 0.962793C9.46628 1.36546 10.6458 2.60483 10.9721 5.24161C10.9778 5.28635 10.9789 5.34097 10.9795 5.3985C10.9829 5.60477 10.9898 6.03358 11.4408 6.04229H11.4545C11.5963 6.04229 11.7085 5.99872 11.7894 5.91272C11.9295 5.76339 11.9204 5.54085 11.9118 5.36189C11.9101 5.31773 11.9084 5.27648 11.9084 5.23987C11.9415 2.54382 9.65309 0.0981967 7.01276 0.0075536C7.00136 0.0075536 6.99111 0.00755361 6.98086 0.00929675C6.97047 0.0106341 6.96001 0.0112167 6.94954 0.0110399C6.92277 0.0110399 6.89088 0.00871571 6.85613 0.00639152C6.81513 0.0034863 6.76786 0 6.71945 0C6.29914 0 6.2194 0.305049 6.20915 0.486916C6.1858 0.907012 6.5839 0.936646 6.77526 0.950591ZM10.8485 8.64945C10.7935 8.60677 10.739 8.56338 10.6851 8.51929C10.4049 8.2892 10.107 8.0777 9.81939 7.87259L9.63999 7.74476C9.27093 7.48038 8.93947 7.35197 8.62623 7.35197C8.20364 7.35197 7.83572 7.5902 7.5316 8.0591C7.39719 8.26712 7.23373 8.36822 7.03269 8.36822C6.89305 8.36324 6.75603 8.32819 6.6306 8.26538C5.44029 7.71454 4.58941 6.8697 4.10304 5.75468C3.86782 5.21547 3.94414 4.86335 4.35761 4.57632C4.59283 4.41362 5.02966 4.1109 4.99947 3.53043C4.96416 2.87211 3.53977 0.890162 2.93949 0.665297C2.68287 0.569797 2.40158 0.568975 2.14443 0.662973C1.45473 0.899459 0.96038 1.31549 0.712636 1.86458C0.473434 2.39565 0.484824 3.01911 0.74339 3.66756C1.49232 5.54259 2.54481 7.17766 3.87238 8.52685C5.17147 9.84756 6.76843 10.9289 8.61825 11.7418C8.78513 11.815 8.95997 11.8551 9.08812 11.8841C9.1314 11.894 9.16899 11.9027 9.19633 11.9103C9.21137 11.9144 9.22688 11.9166 9.24246 11.9167H9.25727C10.1275 11.9167 11.1726 11.1055 11.4932 10.1811C11.7746 9.37111 11.2609 8.97077 10.8485 8.64945Z" fill="white"/>
</svg>
