<svg width="86" height="15" viewBox="0 0 86 15" fill="none" xmlns="http://www.w3.org/2000/svg">
<path d="M3.52367 0H0.763672V14H8.86367V11.36H3.52367V0Z"/>
<path d="M27.2223 14L22.3023 0H18.8823L13.9823 14H16.9623L17.8023 11.48H23.3823L24.2223 14H27.2223ZM20.6023 3.18L22.5223 8.9H18.6823L20.6023 3.18Z"/>
<path d="M41.7416 2.18V0H32.5416V2.64H38.2216L32.4016 11.8V14H41.8616V11.36H35.9216L41.7416 2.18Z"/>
<path d="M53.3048 14.28C54.8848 14.28 56.1648 13.84 57.1648 12.96C58.1648 12.08 58.6648 10.9 58.6648 9.42V0H55.9048V9.2C55.9048 10.66 55.0848 11.58 53.3048 11.58C51.5248 11.58 50.7048 10.66 50.7048 9.2V0H47.9648V9.42C47.9648 10.9 48.4648 12.08 49.4648 12.96C50.4648 13.84 51.7448 14.28 53.3048 14.28Z"/>
<path d="M76.2112 14L73.1112 8.72C74.7312 7.98 75.8112 6.38 75.8112 4.64C75.8112 3.36 75.3512 2.26 74.4512 1.36C73.5512 0.46 72.4512 0 71.1512 0H65.5512V14H68.3112V9.14H70.4112L73.2312 14H76.2112ZM71.1512 2.58C72.1912 2.58 73.0512 3.5 73.0512 4.64C73.0512 5.78 72.1912 6.72 71.1512 6.72H68.3112V2.58H71.1512Z"/>
<path d="M86 8C86 9.10457 85.1046 10 84 10C82.8954 10 82 9.10457 82 8C82 6.89543 82.8954 6 84 6C85.1046 6 86 6.89543 86 8Z"/>
</svg>
