<svg width="194" height="132" viewBox="0 0 194 132" fill="none" xmlns="http://www.w3.org/2000/svg">
<path opacity="0.06" d="M50.7 131.52C66.54 131.52 78.96 125.58 87.78 113.7C96.6 101.64 101.1 85.8 101.1 66C101.1 46.2 96.6 30.36 87.78 18.48C78.96 6.41999 66.54 0.479992 50.7 0.479992C35.04 0.479992 22.62 6.41999 13.62 18.48C4.8 30.36 0.3 46.2 0.3 66C0.3 85.8 4.8 101.64 13.62 113.7C22.62 125.58 35.04 131.52 50.7 131.52ZM76.44 66C76.44 92.64 67.44 107.22 50.7 107.22C33.96 107.22 25.14 92.82 25.14 66C25.14 39.18 33.96 24.6 50.7 24.6C67.44 24.6 76.44 39.18 76.44 66ZM193.315 129V105.06H145.975L170.635 80.4C184.495 66.54 191.335 53.22 191.335 40.08C191.335 28.02 187.195 18.3 179.095 11.28C170.995 4.08 161.095 0.479992 149.755 0.479992C131.935 0.479992 116.095 9.83999 108.175 27.12L129.055 39.36C133.555 29.46 140.575 24.6 150.115 24.6C159.655 24.6 166.495 31.08 166.495 40.98C166.495 47.64 161.635 56.1 152.095 66.18L109.075 110.46V129H193.315Z" fill="#67757F"/>
</svg>