<svg width="195" height="132" viewBox="0 0 195 132" fill="none" xmlns="http://www.w3.org/2000/svg">
<path opacity="0.06" d="M50.7 131.52C66.54 131.52 78.96 125.58 87.78 113.7C96.6 101.64 101.1 85.8 101.1 66C101.1 46.2 96.6 30.36 87.78 18.48C78.96 6.41999 66.54 0.479992 50.7 0.479992C35.04 0.479992 22.62 6.41999 13.62 18.48C4.8 30.36 0.3 46.2 0.3 66C0.3 85.8 4.8 101.64 13.62 113.7C22.62 125.58 35.04 131.52 50.7 131.52ZM76.44 66C76.44 92.64 67.44 107.22 50.7 107.22C33.96 107.22 25.14 92.82 25.14 66C25.14 39.18 33.96 24.6 50.7 24.6C67.44 24.6 76.44 39.18 76.44 66ZM189.401 23.52V2.99999H110.201V26.22H159.521L134.681 58.62L144.221 73.02H149.621C162.401 73.02 169.781 79.86 169.781 90.12C169.781 100.74 162.401 107.22 149.621 107.22C138.101 107.22 130.721 102.36 127.661 92.64L106.421 104.88C113.441 122.34 130.001 131.52 149.621 131.52C162.221 131.52 172.841 127.92 181.481 120.54C190.301 113.16 194.621 103.08 194.621 90.12C194.621 72.3 182.921 59.16 165.821 54.12L189.401 23.52Z" fill="#67757F"/>
</svg>
