<svg width="210" height="132" viewBox="0 0 210 132" fill="none" xmlns="http://www.w3.org/2000/svg">
<path opacity="0.06" d="M50.7 131.52C66.54 131.52 78.96 125.58 87.78 113.7C96.6 101.64 101.1 85.8 101.1 66C101.1 46.2 96.6 30.36 87.78 18.48C78.96 6.41999 66.54 0.479992 50.7 0.479992C35.04 0.479992 22.62 6.41999 13.62 18.48C4.8 30.36 0.3 46.2 0.3 66C0.3 85.8 4.8 101.64 13.62 113.7C22.62 125.58 35.04 131.52 50.7 131.52ZM76.44 66C76.44 92.64 67.44 107.22 50.7 107.22C33.96 107.22 25.14 92.82 25.14 66C25.14 39.18 33.96 24.6 50.7 24.6C67.44 24.6 76.44 39.18 76.44 66ZM195.759 84.54V54.66H170.739V84.54H137.979L179.739 2.99999H153.099L111.159 84.54V107.58H170.739V129H195.759V107.58H209.259V84.54H195.759Z" fill="#67757F"/>
</svg>
