<svg width="13" height="13" viewBox="0 0 13 13" fill="none" xmlns="http://www.w3.org/2000/svg">
<path fill-rule="evenodd" clip-rule="evenodd" d="M12.75 6.625C12.75 8.32467 12.1541 9.7704 10.9622 10.9622C9.7704 12.1541 8.32467 12.75 6.625 12.75C4.92533 12.75 3.4796 12.1541 2.28775 10.9622C1.09591 9.7704 0.5 8.32467 0.5 6.625C0.5 4.92533 1.09591 3.4796 2.28775 2.28775C3.4796 1.09591 4.92533 0.5 6.625 0.5C8.32467 0.5 9.7704 1.09591 10.9622 2.28775C12.1541 3.4796 12.75 4.92533 12.75 6.625ZM11 6.625C11 5.41731 10.5728 4.38623 9.71826 3.53174C8.86377 2.67724 7.83269 2.25 6.625 2.25C5.41731 2.25 4.38623 2.67724 3.53174 3.53174C2.67724 4.38623 2.25 5.41731 2.25 6.625C2.25 7.83269 2.67724 8.86377 3.53174 9.71826C4.38623 10.5728 5.41731 11 6.625 11C7.83269 11 8.86377 10.5728 9.71826 9.71826C10.5728 8.86377 11 7.83269 11 6.625Z" fill="white"/>
</svg>
