<svg width="15" height="14" viewBox="0 0 15 14" fill="none" xmlns="http://www.w3.org/2000/svg">
<path d="M13.4639 0.501033C13.2819 0.508918 13.1116 0.561314 12.96 0.620955H12.959C12.8058 0.681482 12.0744 0.989548 10.9666 1.45514C9.85877 1.92074 8.4187 2.52656 6.99129 3.12773C4.13648 4.33006 1.33185 5.51248 1.33185 5.51248L1.36656 5.49986C1.36656 5.49986 1.17245 5.56214 0.96998 5.70078C0.868744 5.7701 0.755072 5.86116 0.655449 6.00689C0.555827 6.15263 0.477109 6.37482 0.506073 6.60545C0.554804 6.99347 0.807018 7.22786 0.988915 7.35653C1.17081 7.48521 1.34657 7.54588 1.34657 7.54588L1.35078 7.54799L3.98064 8.43267C4.09639 8.81221 4.78131 11.0578 4.94527 11.5759C5.0431 11.885 5.13652 12.0779 5.25349 12.227C5.31205 12.3017 5.37898 12.3657 5.45861 12.4153C5.48954 12.4346 5.52372 12.4489 5.5575 12.4627C5.56868 12.4674 5.57902 12.469 5.59011 12.4732L5.56381 12.4658C5.57137 12.4688 5.57826 12.4737 5.5859 12.4763C5.60637 12.4834 5.62086 12.4847 5.64691 12.49C6.0651 12.6146 6.39905 12.3564 6.39905 12.3564L6.41798 12.3417L7.9696 10.9279L10.5732 12.9245L10.6331 12.9508C11.1739 13.1867 11.7232 13.054 12.0154 12.8203C12.3075 12.5867 12.4204 12.2849 12.4204 12.2849L12.4393 12.2375L14.4506 1.93483C14.5078 1.67918 14.5214 1.44177 14.459 1.21004C14.3967 0.978308 14.2345 0.760915 14.0372 0.645149C13.8399 0.529384 13.6458 0.493147 13.4639 0.501033ZM13.4081 1.60452C13.4067 1.63916 13.4131 1.63569 13.3987 1.70025L13.3976 1.70656L11.4073 11.902C11.3988 11.9164 11.3821 11.9476 11.3432 11.9788C11.3006 12.0128 11.268 12.0337 11.0918 11.9651L7.90964 9.52458L5.98564 11.2782L6.39168 8.69776C6.39168 8.69776 11.3771 4.05077 11.5914 3.85041C11.8058 3.6506 11.7345 3.60742 11.7345 3.60742C11.749 3.36451 11.4105 3.53799 11.4105 3.53799L4.85269 7.59953L4.84954 7.58901L1.70739 6.53076L1.70634 6.52971C1.70626 6.52968 1.70046 6.52677 1.70003 6.52655C1.70171 6.52585 1.71475 6.51919 1.71475 6.51919L1.73264 6.51288L1.75052 6.50551C1.75052 6.50551 4.55541 5.32298 7.40996 4.12076C8.83724 3.51965 10.2769 2.91357 11.3842 2.44818C12.4908 1.98308 13.309 1.64143 13.3545 1.62345C13.3992 1.60585 13.3783 1.60648 13.4081 1.60452Z" fill="white"/>
</svg>
