<svg width="19" height="10" viewBox="0 0 19 10" fill="none" xmlns="http://www.w3.org/2000/svg">
<path d="M18.9733 0.722232C19.125 1.11159 18.6304 2.00591 17.4895 3.40518C17.3312 3.59986 17.1169 3.85842 16.8465 4.18086C16.5827 4.49113 16.4013 4.71015 16.3024 4.83791C16.2035 4.96567 16.1029 5.11624 16.0007 5.28963C15.8985 5.46302 15.8589 5.59078 15.882 5.67291C15.9051 5.75504 15.9479 5.85999 16.0106 5.98775C16.0732 6.1155 16.1804 6.24631 16.3321 6.38015C16.4838 6.51399 16.6717 6.67521 16.8959 6.86381C16.9223 6.87598 16.9388 6.88815 16.9454 6.90031C17.8753 7.69729 18.5051 8.36955 18.8348 8.91709C18.8546 8.94751 18.876 8.98553 18.8991 9.03116C18.9222 9.07679 18.9453 9.1574 18.9684 9.27299C18.9914 9.38858 18.9898 9.492 18.9634 9.58326C18.937 9.67452 18.8546 9.75817 18.7161 9.83422C18.5776 9.91026 18.3831 9.94829 18.1325 9.94829L15.6 9.98479C15.4418 10.0152 15.2571 10 15.0461 9.93916C14.8351 9.87832 14.6636 9.8114 14.5317 9.7384L14.3338 9.62889C14.136 9.50113 13.9052 9.30645 13.6414 9.04485C13.3776 8.78324 13.1517 8.5475 12.9638 8.33761C12.7758 8.12772 12.5747 7.95129 12.3603 7.80832C12.146 7.66535 11.9597 7.6182 11.8014 7.66687C11.7816 7.67295 11.7553 7.6836 11.7223 7.69881C11.6893 7.71402 11.6333 7.75813 11.5541 7.83113C11.475 7.90414 11.4041 7.99387 11.3414 8.10034C11.2788 8.20681 11.2227 8.36498 11.1733 8.57487C11.1238 8.78476 11.1024 9.02051 11.109 9.28211C11.109 9.37337 11.0974 9.45702 11.0744 9.53307C11.0513 9.60912 11.0265 9.66539 11.0002 9.70189L10.9606 9.74752C10.8419 9.86311 10.6671 9.93004 10.4363 9.94829H9.2987C8.83047 9.97262 8.34904 9.92243 7.85443 9.79771C7.35982 9.673 6.92621 9.51178 6.5536 9.31405C6.181 9.11633 5.84136 8.91557 5.5347 8.71176C5.22804 8.50795 4.99558 8.33304 4.8373 8.18703L4.59 7.96802C4.52405 7.90718 4.43337 7.81592 4.31796 7.69425C4.20255 7.57257 3.96678 7.29576 3.61066 6.86381C3.25454 6.43186 2.90502 5.97254 2.56209 5.48583C2.21916 4.99913 1.81522 4.35729 1.35029 3.56032C0.885355 2.76334 0.455043 1.93595 0.0593534 1.07813C0.0197845 0.980793 0 0.898662 0 0.83174C0 0.764818 0.00989223 0.716148 0.0296767 0.685729L0.0692456 0.630975C0.168168 0.515383 0.35612 0.457587 0.633103 0.457587L3.34357 0.439336C3.42271 0.451504 3.49855 0.471276 3.5711 0.498653C3.64364 0.52603 3.6964 0.551886 3.72937 0.576221L3.77883 0.603598C3.88435 0.67052 3.96349 0.76786 4.01625 0.89562C4.14814 1.19981 4.29982 1.51464 4.47129 1.84013C4.64275 2.16561 4.77795 2.41352 4.87687 2.58387L5.03515 2.84851C5.2264 3.21354 5.41105 3.5299 5.58911 3.79758C5.76717 4.06527 5.9271 4.27364 6.06888 4.42269C6.21067 4.57174 6.34752 4.68886 6.47941 4.77403C6.61131 4.8592 6.72342 4.90179 6.81575 4.90179C6.90808 4.90179 6.99711 4.88658 7.08284 4.85616C7.09603 4.85008 7.11251 4.83487 7.1323 4.81053C7.15208 4.7862 7.19165 4.71928 7.25101 4.60977C7.31036 4.50026 7.35487 4.35729 7.38455 4.18086C7.41423 4.00443 7.44555 3.75804 7.47853 3.44168C7.5115 3.12533 7.5115 2.74509 7.47853 2.30097C7.46534 2.05762 7.43566 1.83556 7.3895 1.6348C7.34333 1.43403 7.29717 1.29411 7.25101 1.21502L7.19165 1.10551C7.02678 0.898662 6.7465 0.76786 6.35081 0.713106C6.26508 0.700939 6.28157 0.627933 6.40027 0.49409C6.50579 0.378498 6.63109 0.287241 6.77618 0.22032C7.1257 0.0621415 7.91379 -0.0108639 9.14042 0.00130367C9.6812 0.00738745 10.1263 0.046932 10.4759 0.119937C10.6078 0.150356 10.7182 0.191422 10.8073 0.243134C10.8963 0.294846 10.9639 0.367852 11.0101 0.46215C11.0562 0.556449 11.0908 0.653789 11.1139 0.754172C11.137 0.854554 11.1485 0.99296 11.1485 1.16939C11.1485 1.34582 11.1452 1.51312 11.1387 1.6713C11.1321 1.82948 11.1238 2.04393 11.1139 2.31466C11.104 2.58539 11.0991 2.83635 11.0991 3.06753C11.0991 3.13445 11.0958 3.26221 11.0892 3.45081C11.0826 3.63941 11.0809 3.78542 11.0842 3.88884C11.0875 3.99226 11.0991 4.11546 11.1189 4.25843C11.1387 4.4014 11.1766 4.52003 11.2326 4.61433C11.2887 4.70863 11.3629 4.78316 11.4552 4.83791C11.508 4.85008 11.564 4.86225 11.6234 4.87441C11.6827 4.88658 11.7685 4.85312 11.8806 4.77403C11.9927 4.69494 12.118 4.59 12.2565 4.4592C12.395 4.32839 12.5664 4.12459 12.7709 3.84777C12.9753 3.57096 13.1995 3.24396 13.4435 2.86677C13.8392 2.23405 14.1921 1.54963 14.502 0.813489C14.5284 0.752651 14.5614 0.699418 14.6009 0.653789C14.6405 0.608161 14.6768 0.576221 14.7097 0.55797L14.7493 0.530593L14.7988 0.507779L14.9274 0.480402L15.1252 0.475839L17.9742 0.457587C18.2314 0.427168 18.4424 0.434773 18.6073 0.480402C18.7722 0.52603 18.8744 0.576221 18.9139 0.630975L18.9733 0.722232Z" fill="white"/>
</svg>
