<svg xmlns="http://www.w3.org/2000/svg" style="display:none"><symbol id="call-icon" viewBox="0 0 12 12"><path d="M6.775.95c.047.004.09.008.127.013 2.564.402 3.744 1.642 4.07 4.279.006.044.007.099.008.157.003.206.01.635.46.643h.014a.439.439 0 0 0 .335-.13c.14-.149.131-.371.123-.55-.002-.044-.004-.086-.004-.122C11.942 2.544 9.653.098 7.013.008L6.98.009a.217.217 0 0 1-.031.002c-.027 0-.06-.002-.094-.005C6.816.003 6.768 0 6.72 0c-.42 0-.5.305-.51.487-.023.42.375.45.566.464zm4.073 7.7a8.135 8.135 0 0 1-.163-.13c-.28-.23-.578-.442-.866-.647l-.179-.128c-.37-.265-.7-.393-1.014-.393-.422 0-.79.238-1.094.707-.135.208-.298.31-.5.31a.975.975 0 0 1-.401-.104c-1.19-.55-2.042-1.395-2.528-2.51-.235-.54-.159-.892.255-1.179.235-.162.672-.465.641-1.046C4.964 2.872 3.54.89 2.94.665a1.147 1.147 0 0 0-.795-.002C1.454.899.96 1.315.713 1.865c-.24.53-.228 1.154.03 1.803.75 1.875 1.802 3.51 3.13 4.859 1.298 1.32 2.895 2.402 4.745 3.215.167.073.342.113.47.142l.108.026a.18.18 0 0 0 .046.007h.015c.87 0 1.916-.812 2.236-1.736.282-.81-.232-1.21-.645-1.532z" fill="#fff"/></symbol><symbol id="fa-icon" viewBox="0 0 8 15"><path fill-rule="evenodd" clip-rule="evenodd" d="M7.5.601v2.221H6.228c-.465 0-.778.101-.94.303-.162.202-.243.505-.243.909v1.59H7.42l-.316 2.49H5.045V14.5H2.566V8.114H.5v-2.49h2.066V3.79c0-1.044.28-1.853.843-2.428C3.97.787 4.719.5 5.653.5c.794 0 1.41.034 1.847.101z" fill="#fff"/></symbol><symbol id="logo" viewBox="0 0 86 15"><path d="M3.524 0H.764v14h8.1v-2.64h-5.34V0zM27.222 14l-4.92-14h-3.42l-4.9 14h2.98l.84-2.52h5.58l.84 2.52h3zm-6.62-10.82l1.92 5.72h-3.84l1.92-5.72zM41.742 2.18V0h-9.2v2.64h5.68l-5.82 9.16V14h9.46v-2.64h-5.94l5.82-9.18zM53.305 14.28c1.58 0 2.86-.44 3.86-1.32 1-.88 1.5-2.06 1.5-3.54V0h-2.76v9.2c0 1.46-.82 2.38-2.6 2.38-1.78 0-2.6-.92-2.6-2.38V0h-2.74v9.42c0 1.48.5 2.66 1.5 3.54 1 .88 2.28 1.32 3.84 1.32zM76.211 14l-3.1-5.28c1.62-.74 2.7-2.34 2.7-4.08 0-1.28-.46-2.38-1.36-3.28-.9-.9-2-1.36-3.3-1.36h-5.6v14h2.76V9.14h2.1l2.82 4.86h2.98zm-5.06-11.42c1.04 0 1.9.92 1.9 2.06 0 1.14-.86 2.08-1.9 2.08h-2.84V2.58h2.84zM86 8a2 2 0 1 1-4 0 2 2 0 0 1 4 0z"/></symbol><symbol id="menu-icon" viewBox="0 0 30 18"><rect width="30" height="4" rx="2" fill="#67757F"/><rect x="16" y="7" width="14" height="4" rx="2" fill="#67757F"/><rect y="14" width="30" height="4" rx="2" fill="#67757F"/></symbol><symbol id="num-01" viewBox="0 0 161 132"><path opacity=".06" d="M50.7 131.52c15.84 0 28.26-5.94 37.08-17.82C96.6 101.64 101.1 85.8 101.1 66c0-19.8-4.5-35.64-13.32-47.52C78.96 6.42 66.54.48 50.7.48c-15.66 0-28.08 5.94-37.08 18C4.8 30.36.3 46.2.3 66c0 19.8 4.5 35.64 13.32 47.7 9 11.88 21.42 17.82 37.08 17.82zM76.44 66c0 26.64-9 41.22-25.74 41.22S25.14 92.82 25.14 66s8.82-41.4 25.56-41.4S76.44 39.18 76.44 66zm29.403-51.3l6.12 21.24 23.76-6.66V129h24.84V3h-21.6l-33.12 11.7z" fill="#67757F"/></symbol><symbol id="num-02" viewBox="0 0 194 132"><path opacity=".06" d="M50.7 131.52c15.84 0 28.26-5.94 37.08-17.82C96.6 101.64 101.1 85.8 101.1 66c0-19.8-4.5-35.64-13.32-47.52C78.96 6.42 66.54.48 50.7.48c-15.66 0-28.08 5.94-37.08 18C4.8 30.36.3 46.2.3 66c0 19.8 4.5 35.64 13.32 47.7 9 11.88 21.42 17.82 37.08 17.82zM76.44 66c0 26.64-9 41.22-25.74 41.22S25.14 92.82 25.14 66s8.82-41.4 25.56-41.4S76.44 39.18 76.44 66zm116.875 63v-23.94h-47.34l24.66-24.66c13.86-13.86 20.7-27.18 20.7-40.32 0-12.06-4.14-21.78-12.24-28.8-8.1-7.2-18-10.8-29.34-10.8-17.82 0-33.66 9.36-41.58 26.64l20.88 12.24c4.5-9.9 11.52-14.76 21.06-14.76s16.38 6.48 16.38 16.38c0 6.66-4.86 15.12-14.4 25.2l-43.02 44.28V129h84.24z" fill="#67757F"/></symbol><symbol id="num-03" viewBox="0 0 195 132"><path opacity=".06" d="M50.7 131.52c15.84 0 28.26-5.94 37.08-17.82C96.6 101.64 101.1 85.8 101.1 66c0-19.8-4.5-35.64-13.32-47.52C78.96 6.42 66.54.48 50.7.48c-15.66 0-28.08 5.94-37.08 18C4.8 30.36.3 46.2.3 66c0 19.8 4.5 35.64 13.32 47.7 9 11.88 21.42 17.82 37.08 17.82zM76.44 66c0 26.64-9 41.22-25.74 41.22S25.14 92.82 25.14 66s8.82-41.4 25.56-41.4S76.44 39.18 76.44 66zm112.961-42.48V3h-79.2v23.22h49.32l-24.84 32.4 9.54 14.4h5.4c12.78 0 20.16 6.84 20.16 17.1 0 10.62-7.38 17.1-20.16 17.1-11.52 0-18.9-4.86-21.96-14.58l-21.24 12.24c7.02 17.46 23.58 26.64 43.2 26.64 12.6 0 23.22-3.6 31.86-10.98 8.82-7.38 13.14-17.46 13.14-30.42 0-17.82-11.7-30.96-28.8-36l23.58-30.6z" fill="#67757F"/></symbol><symbol id="num-04" viewBox="0 0 210 132"><path opacity=".06" d="M50.7 131.52c15.84 0 28.26-5.94 37.08-17.82C96.6 101.64 101.1 85.8 101.1 66c0-19.8-4.5-35.64-13.32-47.52C78.96 6.42 66.54.48 50.7.48c-15.66 0-28.08 5.94-37.08 18C4.8 30.36.3 46.2.3 66c0 19.8 4.5 35.64 13.32 47.7 9 11.88 21.42 17.82 37.08 17.82zM76.44 66c0 26.64-9 41.22-25.74 41.22S25.14 92.82 25.14 66s8.82-41.4 25.56-41.4S76.44 39.18 76.44 66zm119.319 18.54V54.66h-25.02v29.88h-32.76L179.739 3h-26.64l-41.94 81.54v23.04h59.58V129h25.02v-21.42h13.5V84.54h-13.5z" fill="#67757F"/></symbol><symbol id="ok-icon" viewBox="0 0 13 13"><path fill-rule="evenodd" clip-rule="evenodd" d="M12.75 6.625c0 1.7-.596 3.145-1.788 4.337-1.192 1.192-2.637 1.788-4.337 1.788-1.7 0-3.145-.596-4.337-1.788C1.096 9.77.5 8.325.5 6.625c0-1.7.596-3.145 1.788-4.337C3.48 1.096 4.925.5 6.625.5c1.7 0 3.145.596 4.337 1.788 1.192 1.192 1.788 2.637 1.788 4.337zm-1.75 0c0-1.208-.427-2.239-1.282-3.093-.854-.855-1.885-1.282-3.093-1.282s-2.239.427-3.093 1.282c-.855.854-1.282 1.885-1.282 3.093s.427 2.239 1.282 3.093C4.386 10.573 5.417 11 6.625 11s2.239-.427 3.093-1.282C10.573 8.864 11 7.833 11 6.625z" fill="#fff"/></symbol><symbol id="temp-icon-left-arrow" viewBox="0 0 31.494 31.494"><path d="M10.273 5.01a1.117 1.117 0 0 1 1.587 1.57l-8.047 8.047h26.554c.62 0 1.127.492 1.127 1.11 0 .62-.508 1.128-1.127 1.128H3.813l8.047 8.032c.43.444.43 1.16 0 1.587a1.112 1.112 0 0 1-1.587 0L.32 16.532a1.12 1.12 0 0 1 0-1.57l9.953-9.953z" fill="#1E201D"/></symbol><symbol id="temp-icon-right-arrow" viewBox="0 0 31.49 31.49"><path d="M21.205 5.007a1.117 1.117 0 0 0-1.587 1.57l8.047 8.048H1.11c-.618 0-1.11.493-1.11 1.112 0 .62.492 1.127 1.11 1.127h26.555l-8.047 8.032c-.43.444-.43 1.16 0 1.587.444.444 1.16.444 1.587 0l9.952-9.952a1.092 1.092 0 0 0 0-1.57l-9.952-9.95z" fill="#1E201D"/></symbol><symbol id="tg-icon" viewBox="0 0 15 14"><path d="M13.464.501c-.182.008-.352.06-.504.12h-.001c-.153.06-.885.369-1.992.834L6.99 3.128l-5.66 2.384.036-.012s-.195.062-.397.2a1.15 1.15 0 0 0-.315.307.897.897 0 0 0-.149.598c.049.388.301.623.483.752.182.128.358.189.358.189l.004.002 2.63.885c.115.38.8 2.625.964 3.143.098.309.192.502.308.651a.649.649 0 0 0 .304.236l.033.01-.026-.007c.007.003.014.008.022.01.02.007.035.009.06.014.42.125.753-.134.753-.134l.019-.014 1.552-1.414 2.603 1.996.06.027c.54.236 1.09.103 1.382-.13.292-.234.405-.536.405-.536l.02-.047 2.01-10.303c.058-.256.071-.493.009-.725a.966.966 0 0 0-.995-.709zm-.056 1.104c-.001.034.005.03-.01.095v.007l-1.99 10.195c-.01.014-.026.046-.065.077-.042.034-.075.055-.251-.014L7.91 9.525l-1.924 1.753.406-2.58 5.2-4.848c.214-.2.143-.243.143-.243.014-.242-.324-.069-.324-.069L4.853 7.6l-.003-.011-3.143-1.058V6.53L1.7 6.527a.716.716 0 0 0 .015-.008l.018-.006.018-.007S4.555 5.323 7.41 4.12l3.974-1.673c1.107-.465 1.925-.807 1.97-.825.045-.017.024-.017.054-.018z" fill="#fff"/></symbol><symbol id="vk-icon" viewBox="0 0 19 10"><path d="M18.973.722c.152.39-.343 1.284-1.483 2.683-.159.195-.373.453-.643.776-.264.31-.446.53-.545.657-.099.128-.2.278-.301.452-.103.173-.142.3-.119.383.023.082.066.187.129.315.062.127.17.258.321.392.152.134.34.295.564.484.026.012.043.024.05.036.93.797 1.56 1.47 1.889 2.017.02.03.041.069.064.114.023.046.046.126.07.242a.652.652 0 0 1-.006.31c-.026.092-.108.175-.247.251-.138.076-.333.114-.584.114l-2.532.037c-.158.03-.343.015-.554-.046a2.52 2.52 0 0 1-.514-.2l-.198-.11a4.53 4.53 0 0 1-.693-.584c-.263-.262-.49-.498-.677-.707a3.183 3.183 0 0 0-.604-.53c-.214-.143-.4-.19-.559-.141a.676.676 0 0 0-.079.032.852.852 0 0 0-.168.132c-.079.073-.15.163-.213.27a1.773 1.773 0 0 0-.168.474c-.05.21-.07.446-.064.707a.864.864 0 0 1-.035.251.593.593 0 0 1-.074.169l-.04.046c-.118.115-.293.182-.524.2H9.3a4.855 4.855 0 0 1-1.445-.15 5.794 5.794 0 0 1-1.3-.484 12.03 12.03 0 0 1-1.02-.602 5.807 5.807 0 0 1-.697-.525l-.247-.219a6.227 6.227 0 0 1-.272-.274 20.516 20.516 0 0 1-.707-.83 22.896 22.896 0 0 1-1.049-1.378A27.512 27.512 0 0 1 1.35 3.56 29.168 29.168 0 0 1 .06 1.078.68.68 0 0 1 0 .832C0 .765.01.716.03.686L.07.63C.167.515.355.458.632.458l2.71-.019c.08.013.156.032.228.06a.69.69 0 0 1 .158.077l.05.028a.61.61 0 0 1 .237.292c.132.304.284.619.455.944.172.326.307.574.406.744l.158.265c.191.365.376.68.554.949.178.267.338.476.48.625.142.149.279.266.41.351.132.085.244.128.337.128a.793.793 0 0 0 .267-.046.164.164 0 0 0 .05-.045c.02-.025.059-.092.118-.201.06-.11.104-.253.134-.43.03-.176.06-.422.094-.738a6.544 6.544 0 0 0 0-1.141 3.93 3.93 0 0 0-.09-.666 1.65 1.65 0 0 0-.138-.42l-.06-.11C7.028.9 6.748.769 6.352.714 6.265.701 6.28.628 6.4.494c.105-.116.23-.207.375-.274.35-.158 1.138-.23 2.364-.219.541.006.986.046 1.336.119.132.03.242.071.331.123a.504.504 0 0 1 .203.22c.046.093.08.19.104.291.023.1.034.239.034.415 0 .177-.003.344-.01.502l-.024.644c-.01.27-.015.521-.015.753 0 .066-.003.194-.01.383a7.014 7.014 0 0 0-.005.438c.004.103.015.226.035.37.02.142.058.261.114.355a.63.63 0 0 0 .222.224 7 7 0 0 0 .168.036c.06.013.146-.02.258-.1.112-.08.237-.184.376-.315.138-.13.31-.334.514-.611.204-.277.428-.604.672-.981.396-.633.75-1.317 1.059-2.054a.618.618 0 0 1 .099-.16.432.432 0 0 1 .109-.095l.04-.027.049-.023.128-.028.198-.004 2.85-.018c.256-.03.467-.023.632.022.165.046.267.096.307.151l.06.091z" fill="#fff"/></symbol></svg>